<svg t="1619334340529" class="icon" viewBox="0 0 1024 1024" version="1.1" xmlns="http://www.w3.org/2000/svg" p-id="2324" width="200" height="200"><path d="M515.584 102.4a137.216 137.216 0 0 1 139.6736 135.168 137.472 137.472 0 0 1-42.3936 101.8368 178.0224 178.0224 0 0 0-54.4768 128.6656v1.4336h169.8304c3.7376 0 6.8096 3.072 6.8096 6.8096v67.9424c0 3.7376-3.072 6.8096-6.8096 6.8096h-169.9328v338.2272c72.3968-7.4752 139.52-34.816 189.8496-76.8a13.6704 13.6704 0 0 0-2.4576-22.6304l-67.4304-34.6112a3.4304 3.4304 0 0 1 0.512-6.2976l185.856-59.8016a6.656 6.656 0 0 1 8.4992 4.2496l59.8016 185.856a3.3792 3.3792 0 0 1-4.7616 4.096l-79.9232-41.0624a13.4656 13.4656 0 0 0-16.0768 2.7136c-66.8672 70.9632-166.4 116.736-273.7664 125.952-8.704 0.7168-17.408 1.2288-26.1632 1.536h-27.9552a460.288 460.288 0 0 1-166.2976-35.6864 398.2848 398.2848 0 0 1-134.7072-91.8016 13.4656 13.4656 0 0 0-16.0768-2.7136l-79.872 41.216a3.3792 3.3792 0 0 1-4.7616-4.096l59.4944-186.0096a6.912 6.912 0 0 1 8.6016-4.4032l185.9072 59.392c2.8672 0.9216 3.2256 4.9152 0.512 6.2976l-67.3792 34.7136a13.6704 13.6704 0 0 0-2.4576 22.6304c50.4832 41.8816 117.6576 69.2736 189.5424 76.9024v-337.8688H306.8416a6.8096 6.8096 0 0 1-6.8096-6.8096V476.3136c0-3.7376 3.072-6.8096 6.8096-6.8096h169.984v-1.4336c0-48.896-20.3264-95.232-55.3472-129.4336A137.6768 137.6768 0 0 1 515.6352 102.4z m2.048 81.6128a56.1152 56.1152 0 0 0 0 112.128 56.1152 56.1152 0 0 0 0-112.128z" p-id="2325" fill="#666666"></path></svg>