<svg t="1620889000903" class="icon" viewBox="0 0 1024 1024" version="1.1" xmlns="http://www.w3.org/2000/svg" p-id="5753" width="200" height="200"><path d="M963.615 347.084q23.342 0 39.58 14.716t16.238 36.028v299.385q0 20.297-16.238 35.013t-39.58 14.716h-18.267q-23.342 0-39.58-14.716t-16.238-35.013V397.828q0-21.313 16.238-36.028t39.58-14.716h18.267z m-823.056 0q23.342 0 38.565 14.716t15.223 36.028v299.385q0 20.297-15.223 35.013t-38.565 14.716h-18.268q-23.342 0-39.58-14.716t-16.237-35.013V397.828q0-21.313 16.238-36.028t39.58-14.716h18.267z m560.206-235.449q18.268 8.12 38.058 22.327t38.057 33.49 31.968 42.118 19.79 48.206H252.194q16.238-53.788 51.251-88.293t70.533-54.803L322.22 33.49q-2.03-2.03-0.507-7.61t10.656-11.672q8.119-7.104 15.223-6.597t9.133 2.538L409.5 93.368q28.416-13.194 59.877-20.298t64.951-7.104q69.011 0 128.888 28.417l53.788-84.234q2.03-2.03 7.611-2.03t16.746 6.09q10.148 5.073 11.67 9.133t-0.507 6.09z m-283.148 87.279q13.194 0 22.327-9.134t9.134-22.327-9.134-22.327-22.327-9.134-22.327 9.134-9.133 22.327 9.133 22.327 22.327 9.134z m249.658-4.06q13.193 0 22.327-9.133t9.133-22.328-9.133-22.327-22.327-9.133-22.328 9.133-9.133 22.327 9.133 22.328 22.328 9.133z m161.363 126.859l1.015 456.69q0 22.326-14.715 37.55t-36.028 15.222h-14.208v142.082q0 20.297-14.716 35.52T713.958 1024h-29.43q-20.298 0-35.014-15.223t-14.715-35.52V831.175H448.063v142.082q0 20.297-14.715 35.52T397.32 1024H367.89q-20.297 0-35.013-15.223t-14.715-35.52V831.175h-11.164q-21.312 0-36.028-15.223t-14.715-37.55v-456.69h572.384z" fill="#dbdbdb" p-id="5754"></path></svg>