<svg t="1620886915403" class="icon" viewBox="0 0 1024 1024" version="1.1" xmlns="http://www.w3.org/2000/svg" p-id="1894" width="200" height="200"><path d="M1007.554056 306.777653l-218.08474 218.596675c-19.965504 19.965504-52.729409 19.965504-72.694913 0L498.689664 306.777653c-19.965504-19.965504-19.965504-52.729409 0-72.694913L716.774403 14.974128c19.965504-19.965504 52.729409-19.965504 72.694913 0l218.08474 218.596676c20.47744 20.47744 20.47744 52.729409 0 73.206849z m-253.92026-251.872516l-215.52506 216.036995L753.633796 486.467192l215.525059-216.036996-215.525059-215.525059zM370.193726 1024h-312.280965c-31.228096 0-56.824897-25.5968-56.824897-56.824897v-312.792901c0-31.228096 25.5968-56.824897 56.824897-56.824897h312.280965c31.228096 0 56.824897 25.5968 56.824897 56.824897v312.792901c0 31.228096-25.084864 56.824897-56.824897 56.824897z m0-369.617798h-312.280965v312.792901h312.280965v-312.792901z m0-141.806274h-312.280965C26.684664 512.575928 1.087864 486.979128 1.087864 455.751031V142.95813c0-31.228096 25.5968-56.824897 56.824897-56.824897h312.280965c31.228096 0 56.824897 25.5968 56.824897 56.824897V455.751031c0 31.228096-25.084864 56.824897-56.824897 56.824897z m0-369.617798h-312.280965V455.751031h312.280965V142.95813z m199.143107 454.599175h312.280965c31.228096 0 56.824897 25.5968 56.824897 56.824897v312.792901c0 31.228096-25.5968 56.824897-56.824897 56.824897h-312.280965c-31.228096 0-56.824897-25.5968-56.824897-56.824897v-312.792901c0-31.228096 25.084864-56.824897 56.824897-56.824897z m0 369.617798h312.280965v-312.792901h-312.280965v312.792901z" p-id="1895" fill="#cdcdcd"></path></svg>