<svg t="1621060890787" class="icon" viewBox="0 0 1024 1024" version="1.1" xmlns="http://www.w3.org/2000/svg" p-id="3425" width="200" height="200"><path d="M587.19 506.246l397.116-397.263a52.029 52.029 0 0 0 0-73.143l-2.194-2.194a51.98 51.98 0 0 0-73.143 0l-397.068 397.8-397.068-397.8a51.98 51.98 0 0 0-73.143 0l-2.146 2.194a51.054 51.054 0 0 0 0 73.143l397.069 397.263L39.544 903.461a52.029 52.029 0 0 0 0 73.142l2.146 2.195a51.98 51.98 0 0 0 73.143 0L511.9 581.583l397.068 397.215a51.98 51.98 0 0 0 73.143 0l2.194-2.146a52.029 52.029 0 0 0 0-73.143L587.19 506.246z" p-id="3426" fill="#2c2c2c"></path></svg>