<svg t="1619422036160" class="icon" viewBox="0 0 1024 1024" version="1.1" xmlns="http://www.w3.org/2000/svg" p-id="9884" width="200" height="200"><path d="M147.01175 430.890704c-44.791136 0-81.108273 36.303834-81.108273 81.109296 0 44.778856 36.316114 81.108273 81.108273 81.108273 44.792159 0 81.109296-36.329417 81.109296-81.108273C228.121046 467.194538 191.804932 430.890704 147.01175 430.890704zM511.999488 430.890704c-44.791136 0-81.108273 36.303834-81.108273 81.109296 0 44.778856 36.316114 81.108273 81.108273 81.108273 44.792159 0 81.109296-36.329417 81.109296-81.108273C593.108784 467.194538 556.791647 430.890704 511.999488 430.890704zM876.987227 430.890704c-44.791136 0-81.108273 36.303834-81.108273 81.109296 0 44.778856 36.316114 81.108273 81.108273 81.108273s81.108273-36.329417 81.108273-81.108273C958.094476 467.194538 921.778362 430.890704 876.987227 430.890704z" p-id="9885" fill="#666666"></path></svg>