<svg t="1620888959409" class="icon" viewBox="0 0 1024 1024" version="1.1" xmlns="http://www.w3.org/2000/svg" p-id="4857" width="200" height="200"><path d="M693.134222 256.625778c-90.055111 0-128.056889 42.325333-190.577778 42.325333-64.284444 0-113.265778-42.325333-191.260444-42.325333-76.515556 0-157.752889 46.023111-209.464889 124.586666-72.419556 110.592-60.131556 318.577778 57.514667 495.900445 41.927111 63.317333 98.247111 134.712889 171.633778 135.224889h1.706666c64 0 82.887111-41.187556 170.780445-41.699556h1.422222c86.812444 0 104.106667 41.642667 168.049778 41.642667h1.251555c73.500444-0.739556 132.778667-79.644444 174.648889-143.018667 27.534222-41.301333 39.367111-64.056889 58.936889-106.552889a14.108444 14.108444 0 0 0-7.395556-18.773333c-153.486222-68.721778-178.232889-285.525333-29.354666-379.335111 7.281778-4.551111 8.135111-14.734222 2.389333-21.048889C823.125333 288.256 756.394667 256.625778 693.134222 256.625778z m-19.740444 64.284444c39.480889 0 69.176889 7.736889 101.546666 34.133334 6.542222 5.290667 7.054222 15.246222 0.796445 20.935111-51.427556 46.592-72.476444 120.888889-67.413333 192.398222 5.233778 75.264 42.382222 153.144889 104.277333 192.455111 6.200889 3.982222 8.760889 11.662222 5.518222 18.147556-10.410667 21.105778-17.806222 33.28-35.328 59.562666-35.669333 53.987556-76.060444 108.942222-126.862222 109.454222h-0.910222c-20.366222 0-33.393778-5.916444-51.427556-14.051555-23.210667-10.524444-52.224-23.722667-100.977778-23.722667h-1.479111c-49.095111 0.284444-78.563556 13.255111-102.229333 23.722667-18.545778 8.192-31.971556 14.108444-52.565333 14.108444h-1.251556c-52.337778-0.398222-97.621333-58.709333-131.299556-109.511111C107.292444 678.058667 107.463111 503.466667 161.678222 420.693333c40.448-61.553778 103.822222-99.783111 165.319111-99.783111 31.971556 0 57.912889 9.159111 85.390223 18.887111 27.192889 9.557333 55.182222 19.512889 88.064 19.512889 31.175111 0 56.263111-9.386667 80.554666-18.432 26.168889-9.841778 53.191111-19.911111 92.387556-19.911111v-0.056889z" fill="#dbdbdb" p-id="4858"></path><path d="M588.515556 158.208c-14.961778 19.057778-37.546667 32.995556-59.562667 37.831111 2.048-29.013333 20.593778-53.646222 27.079111-61.44 14.449778-17.294222 36.977778-31.687111 58.709333-38.456889-2.56 28.785778-18.375111 52.110222-26.225777 62.065778M673.393778 25.543111c-53.475556 3.640889-115.939556 37.376-152.462222 81.123556C487.822222 146.488889 460.515556 205.653333 471.210667 262.997333l4.209777 0.113778c56.888889 0 115.256889-33.905778 149.447112-77.368889 32.768-41.528889 57.571556-100.124444 48.583111-160.199111" fill="#dbdbdb" p-id="4859"></path></svg>