<svg t="1619420371514" class="icon" viewBox="0 0 1024 1024" version="1.1" xmlns="http://www.w3.org/2000/svg" p-id="8957" width="200" height="200"><path d="M512 1024C229.241263 1024 0 794.758737 0 512 0 229.241263 229.241263 0 512 0 794.758737 0 1024 229.241263 1024 512 1024 794.758737 794.758737 1024 512 1024ZM512 53.894737C258.991158 53.894737 53.894737 258.991158 53.894737 512 53.894737 765.008842 258.991158 970.105263 512 970.105263 765.008842 970.105263 970.105263 765.008842 970.105263 512 970.105263 258.991158 765.008842 53.894737 512 53.894737ZM736.660211 616.474947 501.517474 536.818526C501.517474 536.818526 501.517474 536.818526 501.490526 536.818526L497.987368 535.632842C488.016842 529.866105 483.301053 518.709895 485.052632 507.984842L485.052632 188.631579C485.052632 173.756632 497.125053 161.684211 512 161.684211 526.874947 161.684211 538.947368 173.756632 538.947368 188.631579L538.947368 493.702737 763.607579 569.802105C776.488421 577.239579 780.907789 593.731368 773.470316 606.612211 766.005895 619.493053 749.541053 623.912421 736.660211 616.474947Z" p-id="8958" fill="#888888"></path></svg>